HIERARCHY
ROOT Hips
{
  OFFSET 0.000000 0.000000 0.000000
  CHANNELS 6 Xposition Yposition Zposition Xrotation Yrotation Zrotation
  JOINT Spine
  {
    OFFSET 1.602333 -23.943604 -2.409543
    CHANNELS 3 Xrotation Yrotation Zrotation
    JOINT Chest
    {
      OFFSET 1.602333 -23.943604 -2.409543
      CHANNELS 3 Xrotation Yrotation Zrotation
      JOINT Neck
      {
        OFFSET 3.806094 -17.923844 -5.988769
        CHANNELS 3 Xrotation Yrotation Zrotation
        JOINT Head
        {
          OFFSET 6.327906 5.395311 -10.000731
          CHANNELS 3 Xrotation Yrotation Zrotation
          End Site
          {
            OFFSET 0.0 5.0 2.0
          }
        }
      }
      JOINT LeftShoulder
      {
        OFFSET 15.502173 1.195735 6.811843
        CHANNELS 3 Xrotation Yrotation Zrotation
        JOINT LeftArm
        {
          OFFSET 3.049198 17.579728 -11.048325
          CHANNELS 3 Xrotation Yrotation Zrotation
          JOINT LeftForeArm
          {
            OFFSET 2.612628 -12.912878 -19.404069
            CHANNELS 3 Xrotation Yrotation Zrotation
            JOINT LeftHand
            {
              OFFSET -5.000000 0.000000 0.000000
              CHANNELS 3 Xrotation Yrotation Zrotation
              End Site
              {
                OFFSET -3.0 0.0 2.0
              }
            }
          }
        }
      }
      JOINT RightShoulder
      {
        OFFSET -15.502173 -1.195735 -6.811843
        CHANNELS 3 Xrotation Yrotation Zrotation
        JOINT RightArm
        {
          OFFSET 1.860282 20.699400 -12.838847
          CHANNELS 3 Xrotation Yrotation Zrotation
          JOINT RightForeArm
          {
            OFFSET 18.567713 -8.436623 -13.447486
            CHANNELS 3 Xrotation Yrotation Zrotation
            JOINT RightHand
            {
              OFFSET 4.576148 -2.697205 -1.096402
              CHANNELS 3 Xrotation Yrotation Zrotation
              End Site
              {
                OFFSET 3.0 0.0 2.0
              }
            }
          }
        }
      }
    }
  }
  JOINT LeftUpLeg
  {
    OFFSET 12.055773 0.411694 2.557491
    CHANNELS 3 Xrotation Yrotation Zrotation
    JOINT LeftLeg
    {
      OFFSET 12.719119 36.398606 -2.685860
      CHANNELS 3 Xrotation Yrotation Zrotation
      JOINT LeftFoot
      {
        OFFSET 7.820123 26.401424 24.718294
        CHANNELS 3 Xrotation Yrotation Zrotation
        JOINT LeftToeBase
        {
          OFFSET 7.851410 13.775814 -6.190473
          CHANNELS 3 Xrotation Yrotation Zrotation
          End Site
          {
            OFFSET 0.0 -1.0 3.0
          }
        }
      }
    }
  }
  JOINT RightUpLeg
  {
    OFFSET -12.055773 -0.411694 -2.557491
    CHANNELS 3 Xrotation Yrotation Zrotation
    JOINT RightLeg
    {
      OFFSET -15.729471 35.705056 2.000000
      CHANNELS 3 Xrotation Yrotation Zrotation
      JOINT RightFoot
      {
        OFFSET -14.311993 22.750783 26.458322
        CHANNELS 3 Xrotation Yrotation Zrotation
        JOINT RightToeBase
        {
          OFFSET -9.751311 10.017675 -8.024450
          CHANNELS 3 Xrotation Yrotation Zrotation
          End Site
          {
            OFFSET 0.0 -1.0 3.0
          }
        }
      }
    }
  }
}
MOTION
Frames: 12
Frame Time: 0.066667
0.000000 0.000000 0.000000 0.152228 -25.759910 1.667562 0.957967 -1.332049 12.837784 1.102045 -40.779760 2.467165 34.407674 -29.826801 -5.210251 0.000000 0.000000 0.000000 32.875066 2.225904 24.848338 29.160831 -3.183137 4.533417 -175.765732 -19.900328 179.256853 0.000000 0.000000 0.000000 36.588215 -4.224152 -5.889786 -35.892721 -53.687968 38.503348 -3.100460 -9.137179 16.274910 0.000000 0.000000 0.000000 9.146553 -3.053281 -8.426526 -22.411106 4.658284 1.650921 35.686248 -18.744974 -18.597350 0.000000 0.000000 0.000000 15.837957 7.184932 -0.522048 -8.746080 -7.941461 3.018926 54.224116 39.333507 -10.861084 0.000000 0.000000 0.000000
0.000000 0.000000 0.000000 -0.541563 -22.953311 3.274688 1.440557 -1.403802 13.273844 -3.237638 -27.663317 8.420162 12.195069 -8.751653 2.324482 0.000000 0.000000 0.000000 42.188490 0.307723 32.223452 77.093718 -40.379822 4.563355 50.254321 -18.669681 -141.370640 0.000000 0.000000 0.000000 -11.442241 -3.545524 -6.066906 5.496687 -6.362059 11.795222 11.382514 4.734922 25.313139 0.000000 0.000000 0.000000 -5.358625 0.267580 -13.180327 -8.847717 -1.131042 4.452264 37.786350 -19.312431 -14.096506 0.000000 0.000000 0.000000 5.766008 2.648528 -0.851312 -4.638369 -4.935017 2.054972 56.026380 40.126801 -3.980420 0.000000 0.000000 0.000000
0.000000 0.000000 0.000000 -1.462736 -17.545401 5.772324 -1.318990 -1.395766 14.743255 -6.448342 -16.056518 13.993098 1.250220 -3.843742 -1.362175 0.000000 0.000000 0.000000 19.435957 6.591789 22.631601 29.172962 -22.854555 11.654242 117.576753 -34.666499 -158.583371 0.000000 0.000000 0.000000 -14.011564 10.656173 11.414704 5.101527 -11.697653 15.571790 8.284971 -1.318309 32.532865 0.000000 0.000000 0.000000 -5.604199 1.214687 -5.922837 -2.813794 0.141580 0.755791 35.575116 -18.536182 -12.393707 0.000000 0.000000 0.000000 -0.896666 -0.369087 -0.551071 -4.347452 -1.811816 -0.757118 53.459941 38.447197 2.314857 0.000000 0.000000 0.000000
0.000000 0.000000 0.000000 -1.595586 -13.523029 6.352127 1.396900 -1.644409 15.424843 -6.453229 -7.694499 14.348537 -0.197273 3.143563 1.537891 0.000000 0.000000 0.000000 5.304904 -2.782923 -3.362282 -1.220242 -12.780343 8.689051 -45.390608 -31.156459 112.622337 0.000000 0.000000 0.000000 -20.480746 13.525874 12.525417 10.911672 -3.574775 16.614902 7.956580 -2.469107 35.087185 0.000000 0.000000 0.000000 -3.949792 1.030418 -3.166980 -1.020858 1.767339 -1.603581 33.956421 -18.009064 -13.152097 0.000000 0.000000 0.000000 -3.054894 -1.298215 -1.884614 -6.291634 0.766798 -4.293683 53.739190 38.529695 4.586955 0.000000 0.000000 0.000000
0.000000 0.000000 0.000000 -1.483277 -10.444168 6.163037 5.708080 -1.991582 15.732344 -4.784062 -2.220585 10.939500 -3.185181 6.356593 1.180770 0.000000 0.000000 0.000000 -14.722327 -15.280573 -22.437135 -12.049412 -5.584903 2.903485 -19.771257 -20.448123 88.031534 0.000000 0.000000 0.000000 -20.765442 12.486432 11.305170 6.302789 -0.171808 8.516948 5.344908 -0.257978 20.535982 0.000000 0.000000 0.000000 -4.381423 1.046841 -4.231763 -2.058869 3.576207 -3.329688 31.754682 -17.349572 -14.561443 0.000000 0.000000 0.000000 -3.718239 -1.556090 -4.526776 -5.945182 4.983959 -7.920874 46.482575 34.306386 -5.149977 0.000000 0.000000 0.000000
0.000000 0.000000 0.000000 -1.443310 -8.598714 6.131036 2.678843 -1.609799 14.429949 -4.739536 -0.505293 10.839283 -3.180513 7.270780 1.623033 0.000000 0.000000 0.000000 -6.850823 -4.303709 -7.810393 -1.568352 -3.062407 1.893065 -14.700142 -22.387638 66.194443 0.000000 0.000000 0.000000 -8.803559 17.773892 22.576873 6.714948 -0.671200 9.373315 2.805341 -1.756103 15.944844 0.000000 0.000000 0.000000 -3.344211 0.711982 -4.357948 -1.778092 3.084438 -2.851535 30.055430 -16.726955 -13.787330 0.000000 0.000000 0.000000 -5.068921 -2.214071 -4.530892 -3.247695 8.304696 -8.993840 45.710913 33.877566 -3.998584 0.000000 0.000000 0.000000
0.000000 0.000000 0.000000 -1.413848 -8.172569 6.050752 5.740226 -1.308691 11.207833 -4.367186 -1.903167 10.012391 -1.514259 1.913395 0.048024 0.000000 0.000000 0.000000 7.642354 1.900293 5.853984 13.098602 -6.782649 5.154312 -41.862213 -39.614855 93.442400 0.000000 0.000000 0.000000 -3.677762 15.249988 21.863209 9.264452 1.998332 10.877853 4.930165 2.315695 12.545489 0.000000 0.000000 0.000000 -3.659527 0.883244 -3.669684 -1.779011 3.636047 -3.469894 30.653702 -16.965123 -14.269010 0.000000 0.000000 0.000000 -4.675580 -2.009670 -6.217672 1.769040 10.022454 -7.088047 41.335444 30.841610 -5.904346 0.000000 0.000000 0.000000
0.000000 0.000000 0.000000 -1.283089 -7.387033 5.617184 6.817801 -0.336999 4.945388 -2.214469 -3.074817 5.328132 -2.479847 0.334681 -1.377344 0.000000 0.000000 0.000000 13.638829 4.585848 14.099840 16.632719 -5.256040 4.567943 -47.563030 -45.310969 93.106971 0.000000 0.000000 0.000000 2.626914 9.676644 16.537001 7.268723 7.969646 4.881418 5.352574 9.241198 0.004439 0.000000 0.000000 0.000000 -0.338301 0.023546 -1.232470 -6.222890 6.094881 -5.268153 36.810776 -19.023486 -15.927944 0.000000 0.000000 0.000000 8.252996 5.128310 -9.907910 -4.643684 7.451438 -9.208956 49.036732 36.049418 1.211445 0.000000 0.000000 0.000000
0.000000 0.000000 0.000000 -0.533929 -4.369466 2.748218 4.869121 0.524836 -1.370038 -0.209113 2.401017 0.052501 -1.963389 1.870572 -0.260161 0.000000 0.000000 0.000000 3.144587 -0.356220 0.305084 17.959467 9.879297 -2.316668 -15.244773 -32.439976 49.408045 0.000000 0.000000 0.000000 2.157573 4.980850 8.633660 7.755765 11.523992 3.598813 4.583123 10.091741 -3.643365 0.000000 0.000000 0.000000 -10.208110 3.555981 -0.246655 -10.128662 7.865510 -6.669353 44.388526 -21.187684 -19.492380 0.000000 0.000000 0.000000 4.587852 3.080382 -9.724785 -2.040702 8.546138 -8.392633 44.784998 33.721995 2.493785 0.000000 0.000000 0.000000
0.000000 0.000000 0.000000 -0.290087 8.066785 0.069371 6.826415 1.487648 -6.332115 2.278648 10.639431 -8.633570 -4.970942 15.188130 3.998932 0.000000 0.000000 0.000000 -13.881383 -16.861403 -24.603696 15.257256 4.357970 -0.229398 -14.826372 -40.488970 38.864341 0.000000 0.000000 0.000000 -1.741125 2.921857 4.291998 4.555844 13.301691 -1.313230 4.090555 7.526436 -0.875325 0.000000 0.000000 0.000000 -5.391666 2.046719 1.214343 -11.493222 8.872168 -7.755196 50.685287 -24.072318 -8.893439 0.000000 0.000000 0.000000 17.047155 9.686815 -8.465145 -6.622036 9.448584 -12.291793 42.611323 32.473073 2.305991 0.000000 0.000000 0.000000
0.000000 0.000000 0.000000 -0.127169 11.255605 -2.298919 7.511311 1.684171 -6.985100 4.844968 9.599601 -14.998991 -6.679472 14.079214 2.322213 0.000000 0.000000 0.000000 -16.137830 -34.483055 -46.431361 1.500665 -35.013140 24.244662 -157.946072 -42.640029 171.301533 0.000000 0.000000 0.000000 -12.079479 4.646330 4.457305 7.083388 18.159001 -0.446615 6.664072 9.943760 2.590286 0.000000 0.000000 0.000000 -7.344657 2.935207 2.394815 -16.794258 10.505464 -9.148595 58.717900 -27.130992 -8.362465 0.000000 0.000000 0.000000 12.408191 7.314659 -9.271746 -8.967257 9.267774 -13.835632 45.773277 34.250091 2.018699 0.000000 0.000000 0.000000
0.000000 0.000000 0.000000 -0.326226 17.082622 -4.393497 8.895684 2.444720 -10.145579 5.974124 13.106220 -20.160167 -9.417386 13.948405 0.388272 0.000000 0.000000 0.000000 -17.156066 -33.001944 -44.028302 23.192188 -35.901896 18.372250 -142.530434 -54.400861 160.224591 0.000000 0.000000 0.000000 -16.019188 3.928653 2.797785 3.920114 14.594492 -2.744269 5.929825 9.169323 1.807249 0.000000 0.000000 0.000000 -4.707139 2.230475 4.748600 -13.037574 10.191949 -9.323243 58.488676 -27.855848 -3.966202 0.000000 0.000000 0.000000 10.127635 5.778096 -7.665868 -9.017714 11.353008 -15.703240 45.990333 34.205306 -1.195748 0.000000 0.000000 0.000000
